<svg width="65" height="42" viewBox="0 0 65 42" xmlns="http://www.w3.org/2000/svg">
  <title>
    community icon
  </title>
  <g fill="none" fill-rule="evenodd">
    <path d="M12 22c3.866 0 7-3.134 7-7s-3.134-7-7-7-7 3.134-7 7 3.134 7 7 7zm0-2c-2.76 0-5-2.24-5-5s2.24-5 5-5 5 2.24 5 5-2.24 5-5 5zM2 33v-2.5C2 28.565 3.565 27 5.505 27h10.99v-2H5.505C2.46 25 0 27.46 0 30.5V33h2zM50 20c3.866 0 7-3.134 7-7s-3.134-7-7-7-7 3.134-7 7 3.134 7 7 7zm0-2c-2.76 0-5-2.24-5-5s2.24-5 5-5 5 2.24 5 5-2.24 5-5 5zM45.505 25h10.99C58.43 25 60 26.57 60 28.5V31h2v-2.5c0-3.034-2.467-5.5-5.505-5.5h-10.99v2zM31 18c4.97 0 9-4.03 9-9s-4.03-9-9-9-9 4.03-9 9 4.03 9 9 9zm0-2c-3.866 0-7-3.134-7-7s3.134-7 7-7 7 3.134 7 7-3.134 7-7 7z" fill="#52244F"/>
    <circle fill="#02D8FF" cx="31" cy="9" r="5"/>
    <path d="M17 33v-5.5c0-2.488 2.013-4.5 4.506-4.5h19.988C43.98 23 46 25.02 46 27.5V33h2v-5.5c0-3.586-2.915-6.5-6.506-6.5H21.506C17.91 21 15 23.908 15 27.5V33h2z" fill="#52244F"/>
  </g>
</svg>