<?xml version="1.0" encoding="UTF-8" standalone="no"?>
<svg width="62px" height="33px" viewBox="0 0 62 33" version="1.1" xmlns="http://www.w3.org/2000/svg" xmlns:xlink="http://www.w3.org/1999/xlink">
    <!-- Generator: sketchtool 41 (35326) - http://www.bohemiancoding.com/sketch -->
    <title>8A777675-9B95-4BF8-AAE1-40EF87445120</title>
    <desc>Created with sketchtool.</desc>
    <defs></defs>
    <g id="Landing-Page" stroke="none" stroke-width="1" fill="none" fill-rule="evenodd">
        <g id="Landing-Page-Final" transform="translate(-1152.000000, -437.000000)">
            <g id="Group-7" transform="translate(1153.000000, 438.000000)">
                <circle id="Oval-5" stroke="#52244F" stroke-width="2" cx="11" cy="14" r="6"></circle>
                <path d="M0,32 L0,29.5 C0,27.0147186 2.01067476,25 4.50511602,25 L15.494884,25" id="Rectangle-9" stroke="#52244F" stroke-width="2"></path>
                <circle id="Oval-5" stroke="#52244F" stroke-width="2" cx="49" cy="12" r="6"></circle>
                <path d="M44.505116,23 L55.494884,23 C57.9829909,23 60,25.0197757 60,27.5 L60,30" id="Rectangle-9" stroke="#52244F" stroke-width="2"></path>
                <circle id="Oval-6" stroke="#52244F" stroke-width="2" cx="30" cy="8" r="8"></circle>
                <circle id="Oval-6" fill="#02D8FF" cx="30" cy="8" r="5"></circle>
                <path d="M15,32 L15,26.5 C15,23.4624339 17.4584298,21 20.5064575,21 L40.4935425,21 C43.534675,21 46,23.4686147 46,26.5 L46,32" id="Rectangle-10" stroke="#52244F" stroke-width="2"></path>
            </g>
        </g>
    </g>
</svg>