<?xml version="1.0" encoding="UTF-8" standalone="no"?>
<svg width="34px" height="34px" viewBox="0 0 34 34" version="1.1" xmlns="http://www.w3.org/2000/svg" xmlns:xlink="http://www.w3.org/1999/xlink">
    <!-- Generator: sketchtool 41 (35326) - http://www.bohemiancoding.com/sketch -->
    <title>7E149DCB-61DF-43D4-8A90-67C0E0E29E59</title>
    <desc>Created with sketchtool.</desc>
    <defs></defs>
    <g id="Landing-Page" stroke="none" stroke-width="1" fill="none" fill-rule="evenodd">
        <g id="Landing-Page-Final" transform="translate(-451.000000, -443.000000)">
            <g id="Group-6" transform="translate(452.000000, 444.000000)">
                <path d="M20,5.33333333 L26.6666667,5.33333333 C26.6666667,5.33333333 27.7059178,8.00419253 26.6666667,9.33333333 C25.6274155,10.6624741 23.0628778,9.8742444 22.6666667,10.6666667 C21.7345486,12.5309028 22,14.6666667 22,14.6666667 L26.6666667,14.6666667 L26.6666667,19.3333333 L22,20 L22,33 L17.3333333,33 L17.3333333,20 L12.6666667,19.3333333 L13.3333333,15.3333333 C13.3333333,15.3333333 15.53343,16.6882435 16.6666667,14.6666667 C17.7999034,12.6450899 16.2609316,11.3564162 16.6666667,10.6666667 C18.2184527,8.02863049 20,5.33333333 20,5.33333333 Z" id="Rectangle-2" fill="#02D8FF"></path>
                <path d="M1.7660944,0 C0.790486111,0 0,0.790486111 0,1.7660944 L0,30.2339056 C0,31.2092741 0.790486111,32 1.7660944,32 L17.0921489,32 L17.0921489,19.6079642 L12.921984,19.6079642 L12.921984,14.7784813 L17.0921489,14.7784813 L17.0921489,11.2169176 C17.0921489,7.08368116 19.6165969,4.8330798 23.3036936,4.8330798 C25.069788,4.8330798 26.5878139,4.96460767 27.0301168,5.02335759 L27.0301168,9.34279527 L24.4729368,9.34399424 C22.4676463,9.34399424 22.0794173,10.296822 22.0794173,11.69507 L22.0794173,14.7784813 L26.8617803,14.7784813 L26.2390312,19.6079642 L22.0794173,19.6079642 L22.0794173,32 L30.2339056,32 C31.2092741,32 32,31.2092741 32,30.2339056 L32,1.7660944 C32,0.790486111 31.2092741,0 30.2339056,0 L1.7660944,0 Z" id="Fill-14" stroke="#52244F" stroke-width="2"></path>
            </g>
        </g>
    </g>
</svg>