<svg width="38" height="42" viewBox="0 0 38 42" xmlns="http://www.w3.org/2000/svg">
  <title>
    facebook logo
  </title>
  <g fill="none" fill-rule="evenodd">
    <path d="M23 7.333h6.667s1.04 2.67 0 4-3.604.54-4 1.334c-.932 1.864-.667 4-.667 4h4.667v4.666L25 22v13h-4.667V22l-4.666-.667.666-4s2.2 1.355 3.334-.666c1.133-2.022-.406-3.31 0-4C21.217 10.03 23 7.333 23 7.333z" fill="#02D8FF"/>
    <path d="M16.922 17.778h4.17v-4.56c0-3.457 1.95-5.385 5.212-5.385.96 0 1.97.043 2.726.1v2.41h-1.558c-2.39 0-3.393 1.19-3.393 3.352v4.083h4.645l-.365 2.83h-4.28V35h9.154C34.762 35 36 33.762 36 32.234V3.766C36 2.238 34.762 1 33.234 1H4.766C3.238 1 2 2.238 2 3.766v28.468C2 33.762 3.238 35 4.766 35h16.326V20.608h-4.17v-2.83zm9.157 4.83h4.038l.88-6.83h-4.92v-2.083c0-1.126.19-1.35 1.395-1.35l2.558-.002h1V6.146l-.868-.115c-.756-.1-2.362-.2-3.858-.2-4.36 0-7.212 2.82-7.212 7.385v2.56h-4.17v6.83h4.17V33H4.766C4.343 33 4 32.657 4 32.234V3.766C4 3.343 4.343 3 4.766 3h28.468c.423 0 .766.343.766.766v28.468c0 .423-.343.766-.766.766H26.08V22.608z" fill="#52244F"/>
  </g>
</svg>