<?xml version="1.0" encoding="UTF-8"?>
<svg width="44px" height="42px" viewBox="0 0 44 42" version="1.1" xmlns="http://www.w3.org/2000/svg" xmlns:xlink="http://www.w3.org/1999/xlink">
    <!-- Generator: Sketch 43.2 (39069) - http://www.bohemiancoding.com/sketch -->
    <title>jest</title>
    <desc>Created with Sketch.</desc>
    <defs></defs>
    <g id="Landing-Page" stroke="none" stroke-width="1" fill="none" fill-rule="evenodd">
        <g id="jest">
            <g id="Group-2" transform="translate(3.000000, 1.000000)">
                <polygon id="Rectangle" fill="#52244F" fill-rule="nonzero" points="33.0301738 2 27.7176382 15.4584234 29.5779487 16.1927565 35.9698262 0 11.0301738 0 17.3497592 16.0096165 19.2100697 15.2752834 13.9698262 2"></polygon>
                <path d="M29.75,24.5 C26.9885763,24.5 24.75,22.2614237 24.75,19.5 C24.75,16.7385763 26.9885763,14.5 29.75,14.5 C32.5114237,14.5 34.75,16.7385763 34.75,19.5 C34.75,22.2614237 32.5114237,24.5 29.75,24.5 Z M29.75,22.5 C31.4068542,22.5 32.75,21.1568542 32.75,19.5 C32.75,17.8431458 31.4068542,16.5 29.75,16.5 C28.0931458,16.5 26.75,17.8431458 26.75,19.5 C26.75,21.1568542 28.0931458,22.5 29.75,22.5 Z" id="Oval-2" fill="#52244F" fill-rule="nonzero"></path>
                <path d="M29.75,22.5 C31.4068542,22.5 32.75,21.1568542 32.75,19.5 C32.75,17.8431458 31.4068542,16.5 29.75,16.5 C28.0931458,16.5 26.75,17.8431458 26.75,19.5 C26.75,21.1568542 28.0931458,22.5 29.75,22.5 Z" id="Path" fill="#02D8FF"></path>
                <path d="M17.75,24.5 C14.9885763,24.5 12.75,22.2614237 12.75,19.5 C12.75,16.7385763 14.9885763,14.5 17.75,14.5 C20.5114237,14.5 22.75,16.7385763 22.75,19.5 C22.75,22.2614237 20.5114237,24.5 17.75,24.5 Z M17.75,22.5 C19.4068542,22.5 20.75,21.1568542 20.75,19.5 C20.75,17.8431458 19.4068542,16.5 17.75,16.5 C16.0931458,16.5 14.75,17.8431458 14.75,19.5 C14.75,21.1568542 16.0931458,22.5 17.75,22.5 Z" id="Oval-2" fill="#52244F" fill-rule="nonzero"></path>
                <path d="M17.75,22.5 C19.4068542,22.5 20.75,21.1568542 20.75,19.5 C20.75,17.8431458 19.4068542,16.5 17.75,16.5 C16.0931458,16.5 14.75,17.8431458 14.75,19.5 C14.75,21.1568542 16.0931458,22.5 17.75,22.5 Z" id="Path" fill="#02D8FF"></path>
                <path d="M6,24.5 C3.23857625,24.5 1,22.2614237 1,19.5 C1,16.7385763 3.23857625,14.5 6,14.5 C8.76142375,14.5 11,16.7385763 11,19.5 C11,22.2614237 8.76142375,24.5 6,24.5 Z M6,22.5 C7.65685425,22.5 9,21.1568542 9,19.5 C9,17.8431458 7.65685425,16.5 6,16.5 C4.34314575,16.5 3,17.8431458 3,19.5 C3,21.1568542 4.34314575,22.5 6,22.5 Z" id="Oval-2" fill="#52244F" fill-rule="nonzero"></path>
                <path d="M6,22.5 C7.65685425,22.5 9,21.1568542 9,19.5 C9,17.8431458 7.65685425,16.5 6,16.5 C4.34314575,16.5 3,17.8431458 3,19.5 C3,21.1568542 4.34314575,22.5 6,22.5 Z" id="Path" fill="#02D8FF"></path>
                <polygon id="Line" fill="#52244F" fill-rule="nonzero" points="20.9152832 21 26.5 21 26.5 19 20.9152832 19"></polygon>
                <path d="M31.9206,23.3878271 C33.306243,25.7637024 32.6359176,28.5766708 31.1371005,29.7839695 C29.9551817,30.7360063 28.9401513,31.0506317 25.3447361,31.5269729 C24.0380555,31.7081244 22.4928965,32.1733176 20.7208408,32.877968 C19.8463651,33.2256996 18.9304221,33.6264668 17.9670047,34.077697 C16.4627087,34.7822554 13.0807122,36.519722 13.1328546,36.4951713 C11.0219136,37.4890862 9.4922365,37.967041 7.81298828,37.967041 C5.49262665,37.967041 2.36213516,35.5526929 2.17416959,32.881229 C1.94316026,29.5980048 2.70727108,27.0052638 4.90805141,23.2120449 L3.17813023,22.2083653 C0.792184091,26.3207322 -0.0833472851,29.2915395 0.17910189,33.021603 C0.447074697,36.8301712 4.51440202,39.967041 7.81298828,39.967041 C9.85878321,39.967041 11.6284894,39.414088 13.9848212,38.3046334 C13.9749671,38.3092731 17.3545564,36.5730431 18.8152995,35.8888834 C19.7448861,35.4534983 20.6251889,35.0683253 21.4598489,34.7364263 C23.0955457,34.0859984 24.4997422,33.663244 25.6134095,33.5088352 C29.5370422,32.9890283 30.8526452,32.5812354 32.3917081,31.3415188 C34.628947,29.5394206 35.555623,25.6506963 33.6482477,22.3802393 L31.9206,23.3878271 Z M8.28630749,28.1856753 C7.33227642,27.2146625 6.94162221,25.8300245 7.46735722,23.815227 L5.5321545,23.3102612 C4.82596831,26.0166097 5.41998345,28.1220419 6.85967401,29.5873589 C7.4693664,30.2079038 8.08482581,30.5804619 8.53728889,30.76104 L8.87654697,30.8964379 L9.22320078,30.7812868 C9.65320667,30.6384478 10.3632786,30.3336527 11.2604911,29.8324096 C12.7377005,29.0071415 14.2116274,27.9166459 15.5865541,26.5257113 C16.3212456,25.7824659 17.0087322,24.9705317 17.6403679,24.087109 L16.0134407,22.9238773 C15.4444214,23.7197231 14.8254677,24.4507187 14.1641793,25.1197063 C12.9283651,26.3699088 11.6050696,27.3489586 10.2850567,28.0864063 C9.82663483,28.3425115 9.40317829,28.5495726 9.02634064,28.7113284 C9.00488215,28.7205394 8.98409791,28.7293865 8.96399909,28.7378735 C8.76589828,28.6135744 8.52719435,28.4308499 8.28630749,28.1856753 Z" id="Path-2" fill="#52244F" fill-rule="nonzero"></path>
                <polygon id="Path-3" fill="#52244F" fill-rule="nonzero" points="26.805585 16.4472136 28.5944394 15.5527864 23.7000122 5.76393202 18.805585 15.5527864 20.5944394 16.4472136 23.7000122 10.236068"></polygon>
            </g>
        </g>
    </g>
</svg>