<?xml version="1.0" encoding="UTF-8" standalone="no"?>
<svg width="59px" height="52px" viewBox="0 0 59 52" version="1.1" xmlns="http://www.w3.org/2000/svg" xmlns:xlink="http://www.w3.org/1999/xlink">
    <!-- Generator: sketchtool 41 (35326) - http://www.bohemiancoding.com/sketch -->
    <title>C4335BC4-17E8-40B3-A106-0836DFB29AF2</title>
    <desc>Created with sketchtool.</desc>
    <defs>
        <path d="M34.6961015,10.4992013 C31.7158667,9.67173665 28.3301369,9.06154081 24.6821916,8.7259256 C25.90119,10.4503545 27.0847358,12.2958681 28.2095977,14.244186 C29.3344596,16.192504 30.3409484,18.1402415 31.2248484,20.0581395 C32.7581698,16.7311186 33.9225896,13.4938927 34.6961015,10.4992013 Z M1.58296823,29.6170777 C4.56320303,30.4445424 7.94893282,31.0547383 11.5968781,31.3903535 C10.3778797,29.6659246 9.19433393,27.820411 8.06947205,25.872093 C6.94461016,23.9237751 5.93812141,21.9760375 5.05422135,20.0581395 C3.5209,23.3851604 2.35648021,26.6223864 1.58296823,29.6170777 Z" id="path-1"></path>
        <path d="M34.6961015,10.4992013 C31.7158667,9.67173665 28.3301369,9.06154081 24.6821916,8.7259256 C25.90119,10.4503545 27.0847358,12.2958681 28.2095977,14.244186 C29.3344596,16.192504 30.3409484,18.1402415 31.2248484,20.0581395 C32.7581698,16.7311186 33.9225896,13.4938927 34.6961015,10.4992013 Z M1.58296823,29.6170777 C4.56320303,30.4445424 7.94893282,31.0547383 11.5968781,31.3903535 C10.3778797,29.6659246 9.19433393,27.820411 8.06947205,25.872093 C6.94461016,23.9237751 5.93812141,21.9760375 5.05422135,20.0581395 C3.5209,23.3851604 2.35648021,26.6223864 1.58296823,29.6170777 Z" id="path-2"></path>
        <path d="M34.6961015,10.4992013 C31.7158667,9.67173665 28.3301369,9.06154081 24.6821916,8.7259256 C25.90119,10.4503545 27.0847358,12.2958681 28.2095977,14.244186 C29.3344596,16.192504 30.3409484,18.1402415 31.2248484,20.0581395 C32.7581698,16.7311186 33.9225896,13.4938927 34.6961015,10.4992013 Z M1.58296823,29.6170777 C4.56320303,30.4445424 7.94893282,31.0547383 11.5968781,31.3903535 C10.3778797,29.6659246 9.19433393,27.820411 8.06947205,25.872093 C6.94461016,23.9237751 5.93812141,21.9760375 5.05422135,20.0581395 C3.5209,23.3851604 2.35648021,26.6223864 1.58296823,29.6170777 Z" id="path-3"></path>
    </defs>
    <g id="Landing-Page" stroke="none" stroke-width="1" fill="none" fill-rule="evenodd">
        <g id="Landing-Page-Final" transform="translate(-32.000000, -28.000000)">
            <g id="Group-2" transform="translate(32.000000, 24.000000)">
                <g id="Tips">
                    <path d="M45.6263341,20.4410618 C53.1882625,22.5406375 58.1395349,26.0390324 58.1395349,30 C58.1395349,33.9609676 53.1882625,37.4593625 45.6263341,39.5589382 C44.8528221,36.5642468 43.6884023,33.3270209 42.155081,30 C43.6884023,26.6729791 44.8528221,23.4357532 45.6263341,20.4410618 Z M12.5132008,39.5589382 C4.9512724,37.4593625 0,33.9609676 0,30 C0,26.0390324 4.9512724,22.5406375 12.5132008,20.4410618 C13.2867128,23.4357532 14.4511326,26.6729791 15.9844539,30 C14.4511326,33.3270209 13.2867128,36.5642468 12.5132008,39.5589382 Z" id="Orange" fill="#E6A734"></path>
                    <path d="M45.6263341,20.4410618 C53.1882625,22.5406375 58.1395349,26.0390324 58.1395349,30 C58.1395349,33.9609676 53.1882625,37.4593625 45.6263341,39.5589382 C44.8528221,36.5642468 43.6884023,33.3270209 42.155081,30 C43.6884023,26.6729791 44.8528221,23.4357532 45.6263341,20.4410618 Z M12.5132008,39.5589382 C4.9512724,37.4593625 0,33.9609676 0,30 C0,26.0390324 4.9512724,22.5406375 12.5132008,20.4410618 C13.2867128,23.4357532 14.4511326,26.6729791 15.9844539,30 C14.4511326,33.3270209 13.2867128,36.5642468 12.5132008,39.5589382 Z" id="Green" fill="#45B892" transform="translate(29.069767, 30.000000) rotate(60.000000) translate(-29.069767, -30.000000) "></path>
                    <path d="M45.6263341,20.4410618 C53.1882625,22.5406375 58.1395349,26.0390324 58.1395349,30 C58.1395349,33.9609676 53.1882625,37.4593625 45.6263341,39.5589382 C44.8528221,36.5642468 43.6884023,33.3270209 42.155081,30 C43.6884023,26.6729791 44.8528221,23.4357532 45.6263341,20.4410618 Z M12.5132008,39.5589382 C4.9512724,37.4593625 0,33.9609676 0,30 C0,26.0390324 4.9512724,22.5406375 12.5132008,20.4410618 C13.2867128,23.4357532 14.4511326,26.6729791 15.9844539,30 C14.4511326,33.3270209 13.2867128,36.5642468 12.5132008,39.5589382 Z" id="Red" fill="#DD1D64" transform="translate(29.069767, 30.000000) rotate(-60.000000) translate(-29.069767, -30.000000) "></path>
                </g>
                <g id="Intersects" transform="translate(10.930233, 9.941860)">
                    <g id="Orange/Red">
                        <use fill="#DD1D64" style="mix-blend-mode: multiply;" xlink:href="#path-1"></use>
                        <use fill="#E6A734" style="mix-blend-mode: multiply;" xlink:href="#path-1"></use>
                    </g>
                    <g id="Red/Green" transform="translate(18.139535, 20.058140) rotate(-60.000000) translate(-18.139535, -20.058140) ">
                        <use fill="#45B892" style="mix-blend-mode: multiply;" xlink:href="#path-2"></use>
                        <use fill="#DD1D64" style="mix-blend-mode: multiply;" xlink:href="#path-2"></use>
                    </g>
                    <g id="Green/Orange" transform="translate(18.139535, 20.058140) rotate(60.000000) translate(-18.139535, -20.058140) ">
                        <use fill="#E6A734" style="mix-blend-mode: multiply;" xlink:href="#path-3"></use>
                        <use fill="#45B892" style="mix-blend-mode: multiply;" xlink:href="#path-3"></use>
                    </g>
                </g>
                <circle id="Oval-19" fill="#02D8FF" cx="29.0697674" cy="30" r="5.81395349"></circle>
            </g>
        </g>
    </g>
</svg>