<?xml version="1.0" standalone="no"?>
<!DOCTYPE svg PUBLIC "-//W3C//DTD SVG 20010904//EN"
 "http://www.w3.org/TR/2001/REC-SVG-20010904/DTD/svg10.dtd">
<svg version="1.0" xmlns="http://www.w3.org/2000/svg"
 width="700.000000pt" height="700.000000pt" viewBox="0 0 700.000000 700.000000"
 preserveAspectRatio="xMidYMid meet">
<metadata>
Created by potrace 1.11, written by Peter Selinger 2001-2013
</metadata>
<g transform="translate(0.000000,700.000000) scale(0.100000,-0.100000)"
fill="#000000" stroke="none">
<path d="M1902 6590 c-179 -47 -316 -164 -406 -346 -31 -65 -62 -147 -70 -190
-2 -10 -9 -37 -14 -59 -27 -101 -37 -218 -37 -410 1 -155 10 -327 20 -365 2
-8 7 -35 10 -60 6 -43 29 -186 40 -240 4 -21 55 -247 59 -259 2 -8 -33 -21
-179 -67 -633 -198 -1084 -489 -1249 -807 -26 -50 -43 -92 -44 -110 -1 -1 -6
-15 -12 -32 -15 -38 -21 -176 -10 -235 16 -90 22 -106 57 -179 156 -315 570
-596 1183 -801 96 -32 194 -63 217 -69 l42 -11 -13 -43 c-7 -23 -13 -45 -14
-50 0 -4 -3 -20 -6 -35 -4 -15 -8 -36 -11 -47 -26 -121 -53 -272 -60 -340 -3
-22 -7 -51 -10 -65 -19 -96 -27 -465 -12 -594 6 -57 21 -139 42 -236 5 -21 40
-118 60 -164 30 -69 105 -173 165 -230 253 -234 668 -200 1150 93 97 59 356
243 380 270 3 4 34 31 70 61 57 48 118 104 221 201 l27 26 29 -25 c15 -14 58
-53 94 -87 36 -34 117 -104 180 -156 768 -639 1408 -713 1692 -198 45 82 88
218 112 354 27 155 27 473 0 688 -3 20 -7 52 -9 70 -6 48 -38 225 -52 289 -3
15 -5 29 -5 30 0 2 -10 45 -23 95 l-24 93 42 11 c50 13 363 116 391 129 11 5
61 26 110 46 518 211 877 525 949 831 28 123 7 293 -51 408 -164 324 -617 618
-1273 825 -91 29 -166 53 -167 54 -1 1 4 24 12 50 15 49 70 311 79 376 14 106
19 137 22 155 18 100 25 464 11 585 -43 370 -178 616 -399 724 -104 51 -181
66 -313 62 -137 -5 -154 -8 -293 -52 -306 -97 -663 -331 -1030 -675 -41 -38
-77 -69 -81 -69 -4 0 -32 23 -62 51 -278 261 -543 456 -792 584 -118 60 -295
128 -367 140 -19 3 -51 10 -70 14 -69 15 -232 10 -308 -9z m2053 -1704 c28 -3
102 -8 165 -12 63 -3 126 -7 140 -8 21 -1 44 -30 136 -166 107 -160 280 -437
341 -550 17 -30 54 -98 83 -150 70 -125 250 -487 250 -501 0 -6 -7 -23 -15
-37 -8 -15 -50 -100 -94 -189 -78 -158 -104 -208 -204 -388 -81 -145 -244
-410 -334 -544 -45 -68 -83 -128 -83 -132 0 -5 -4 -9 -10 -9 -5 0 -10 -6 -10
-14 0 -31 -46 -53 -117 -55 -37 -1 -84 -4 -103 -6 -212 -24 -1020 -24 -1203 0
-16 2 -63 5 -105 7 l-77 3 -121 180 c-128 191 -298 471 -406 670 -81 148 -258
501 -258 515 0 10 205 426 219 445 4 5 27 46 51 90 152 286 491 818 527 827
10 3 49 6 86 7 38 1 78 4 90 7 12 2 108 7 212 11 105 3 191 7 193 8 5 5 593
-4 647 -9z"/>
<path d="M3359 4185 c-164 -33 -332 -144 -430 -283 -34 -48 -96 -174 -103
-212 -3 -14 -10 -45 -15 -70 -11 -56 -7 -246 7 -280 5 -14 16 -45 23 -70 16
-55 72 -155 118 -213 81 -99 203 -181 341 -227 84 -28 246 -34 345 -13 236 49
425 215 513 448 58 153 49 376 -21 525 -27 58 -97 158 -143 204 -54 53 -159
125 -214 146 -19 7 -39 17 -45 22 -5 4 -20 8 -33 8 -13 0 -32 5 -43 11 -32 16
-225 19 -300 4z"/>
</g>
</svg>
