<svg xmlns="http://www.w3.org/2000/svg" width="65" height="42">
  <g fill="none" fill-rule="evenodd">
    <path fill="#52244F" d="M12 22a7 7 0 1 0 0-14 7 7 0 0 0 0 14zm0-2a5 5 0 1 1 0-10 5 5 0 0 1 0 10zM2 33v-2.5A3.5 3.5 0 0 1 5.5 27h11v-2h-11A5.5 5.5 0 0 0 0 30.5V33h2zm48-13a7 7 0 1 0 0-14 7 7 0 0 0 0 14zm0-2a5 5 0 1 1 0-10 5 5 0 0 1 0 10zm-4.5 7h11a3.5 3.5 0 0 1 3.5 3.5V31h2v-2.5a5.5 5.5 0 0 0-5.5-5.5h-11v2zM31 18a9 9 0 1 0 0-18 9 9 0 0 0 0 18zm0-2a7 7 0 1 1 0-14 7 7 0 0 1 0 14z"/>
    <circle cx="31" cy="9" r="5" fill="#02D8FF"/>
    <path fill="#52244F" d="M17 33v-5.5a4.5 4.5 0 0 1 4.5-4.5h20a4.5 4.5 0 0 1 4.5 4.5V33h2v-5.5a6.5 6.5 0 0 0-6.5-6.5h-20a6.5 6.5 0 0 0-6.5 6.5V33h2z"/>
  </g>
</svg>
