<svg width="44" height="42" viewBox="0 0 44 42" xmlns="http://www.w3.org/2000/svg">
  <title>
    console icon
  </title>
  <g fill="none" fill-rule="evenodd">
    <path d="M3 4c0-.554.445-1 .997-1h36.006c.552 0 .997.445.997 1v30c0 .554-.445 1-.997 1H3.997C3.445 35 3 34.555 3 34V4zM1 4v30c0 1.66 1.34 3 2.997 3h36.006C41.66 37 43 35.657 43 34V4c0-1.66-1.34-3-2.997-3H3.997C2.34 1 1 2.343 1 4z" fill="#52244F"/>
    <path d="M8.416 13.188c-.448.323-.55.948-.228 1.396.323.448.948.55 1.396.228l3.77-2.713c.774-.558.774-1.64 0-2.2L9.583 7.19c-.448-.322-1.073-.22-1.396.228-.322.448-.22 1.073.228 1.396L11.456 11l-3.04 2.188z" fill="#52244F"/>
    <path d="M15.5 16h6c.552 0 1-.448 1-1s-.448-1-1-1h-6c-.552 0-1 .448-1 1s.448 1 1 1z" fill="#02D8FF"/>
  </g>
</svg>