<svg xmlns="http://www.w3.org/2000/svg" width="25" height="28">
  <g fill="#52244F" fill-rule="evenodd">
    <path d="M9.72 11.75c-.8 0-1.43.7-1.43 1.55 0 .85.64 1.55 1.43 1.55.8 0 1.42-.7 1.42-1.55.02-.85-.63-1.55-1.42-1.55Zm5.1 0c-.8 0-1.42.7-1.42 1.55 0 .85.64 1.55 1.43 1.55.8 0 1.42-.7 1.42-1.55 0-.85-.63-1.55-1.42-1.55Z"/>
    <path d="M21.63 0H2.87A2.88 2.88 0 0 0 0 2.88v18.93c0 1.6 1.29 2.89 2.87 2.89h15.88L18 22.1l1.8 1.67 1.69 1.57L24.5 28V2.88c0-1.6-1.29-2.88-2.87-2.88Zm-5.4 18.28-.93-1.13c1.84-.52 2.54-1.67 2.54-1.67-.58.38-1.12.65-1.61.83a9.8 9.8 0 0 1-5.66.59 11.75 11.75 0 0 1-3.08-1.08l-.13-.07-.05-.04-.4-.24s.68 1.12 2.46 1.65l-.94 1.16c-3.1-.1-4.27-2.12-4.27-2.12 0-4.51 2.01-8.17 2.01-8.17 2.02-1.5 3.94-1.47 3.94-1.47l.14.17c-2.52.73-3.68 1.84-3.68 1.84s.3-.17.82-.41c1.5-.66 2.69-.84 3.18-.88a11.85 11.85 0 0 1 3.07-.06c1.33.16 2.75.55 4.21 1.35 0 0-1.1-1.05-3.49-1.78l.2-.23s1.92-.04 3.93 1.47c0 0 2.02 3.66 2.02 8.17 0 0-1.19 2.03-4.28 2.12Z"/>
  </g>
</svg>
