<svg xmlns="http://www.w3.org/2000/svg" width="38" height="42">
  <g fill="none" fill-rule="evenodd">
    <path fill="#02D8FF" d="M23 7.33h6.67s1.04 2.67 0 4-3.6.54-4 1.34c-.94 1.86-.67 4-.67 4h4.67v4.66L25 22v13h-4.67V22l-4.66-.67.66-4s2.2 1.36 3.34-.66c1.13-2.03-.4-3.31 0-4C21.22 10.03 23 7.33 23 7.33z"/>
    <path fill="#52244F" d="M16.92 17.78h4.17v-4.56c0-3.46 1.95-5.39 5.21-5.39.96 0 1.97.05 2.73.1v2.41h-1.56c-2.39 0-3.4 1.2-3.4 3.35v4.09h4.65l-.36 2.83h-4.28V35h9.15A2.77 2.77 0 0 0 36 32.23V3.77A2.77 2.77 0 0 0 33.23 1H4.77A2.77 2.77 0 0 0 2 3.77v28.46A2.77 2.77 0 0 0 4.77 35h16.32V20.6h-4.17v-2.82zm9.16 4.83h4.04l.88-6.83h-4.92v-2.09c0-1.12.19-1.35 1.4-1.35h3.55v-6.2l-.87-.1c-.75-.1-2.36-.2-3.86-.2-4.36 0-7.2 2.81-7.2 7.38v2.56h-4.18v6.83h4.17V33H4.77a.77.77 0 0 1-.77-.77V3.77c0-.43.34-.77.77-.77h28.46c.43 0 .77.34.77.77v28.46c0 .43-.34.77-.77.77h-7.15V22.6z"/>
  </g>
</svg>
