<svg xmlns="http://www.w3.org/2000/svg" xml:space="preserve" width="27.7" height="27" style="fill-rule:evenodd;clip-rule:evenodd;stroke-linejoin:round;stroke-miterlimit:1.41421" viewBox="0 0 116 113">
  <path d="M152.6 107.44a16.29 16.29 0 0 0-5.14 31.75c.81.15 1.11-.36 1.11-.79l-.02-2.77c-4.53.99-5.49-2.18-5.49-2.18-.74-1.88-1.8-2.38-1.8-2.38-1.48-1.01.1-1 .1-1 1.64.12 2.5 1.68 2.5 1.68 1.45 2.5 3.81 1.77 4.74 1.36a3.48 3.48 0 0 1 1.04-2.18c-3.62-.41-7.42-1.8-7.42-8.05a6.3 6.3 0 0 1 1.67-4.37 5.86 5.86 0 0 1 .16-4.31s1.37-.44 4.48 1.67a15.6 15.6 0 0 1 8.16 0c3.1-2.11 4.47-1.67 4.47-1.67.9 2.24.33 3.9.16 4.3a6.29 6.29 0 0 1 1.68 4.38c0 6.26-3.8 7.63-7.44 8.04.59.5 1.1 1.5 1.1 3.01l-.01 4.47c0 .44.3.94 1.12.79a16.3 16.3 0 0 0-5.16-31.75" style="fill:#52244f" transform="matrix(3.54054 0 0 3.54054 -482.65 -380.4)"/>
</svg>
