<svg xmlns="http://www.w3.org/2000/svg" width="38" height="42">
  <g fill="none" fill-rule="evenodd">
    <path fill="#52244F" d="m19 39.12 16-8.2V11.07l-16-8.2-16 8.2v19.86l16 8.2zM5 29.7V12.3l14-7.18 14 7.18v17.4l-14 7.18L5 29.7z"/>
    <path fill="#52244F" d="m18.14 4.49-15 25A1 1 0 0 0 4 31h30a1 1 0 0 0 .86-1.51l-15-25a1 1 0 0 0-1.72 0zM32.24 29H5.76L19 6.94 32.23 29z"/>
    <g fill="#02D8FF" transform="translate(15)">
      <circle cx="4" cy="4" r="4"/>
      <circle cx="4" cy="38" r="4"/>
    </g>
    <g fill="#02D8FF" transform="rotate(60 11.5 33.99)">
      <circle cx="4" cy="4" r="4"/>
      <circle cx="4" cy="38" r="4"/>
    </g>
    <g fill="#02D8FF" transform="rotate(120 11.5 25.33)">
      <circle cx="4" cy="4" r="4"/>
      <circle cx="4" cy="38" r="4"/>
    </g>
  </g>
</svg>
