<svg xmlns="http://www.w3.org/2000/svg" width="44" height="42">
  <g fill="none" fill-rule="evenodd">
    <path fill="#52244F" fill-rule="nonzero" d="m36.03 3-5.31 13.46 1.86.73L38.97 1H14.03l6.32 16.01 1.86-.73L16.97 3z"/>
    <path fill="#52244F" fill-rule="nonzero" d="M32.75 25.5a5 5 0 1 1 0-10 5 5 0 0 1 0 10Zm0-2a3 3 0 1 0 0-6 3 3 0 0 0 0 6Z"/>
    <path fill="#02D8FF" d="M32.75 23.5a3 3 0 1 0 0-6 3 3 0 0 0 0 6Z"/>
    <path fill="#52244F" fill-rule="nonzero" d="M20.75 25.5a5 5 0 1 1 0-10 5 5 0 0 1 0 10Zm0-2a3 3 0 1 0 0-6 3 3 0 0 0 0 6Z"/>
    <path fill="#02D8FF" d="M20.75 23.5a3 3 0 1 0 0-6 3 3 0 0 0 0 6Z"/>
    <path fill="#52244F" fill-rule="nonzero" d="M9 25.5a5 5 0 1 1 0-10 5 5 0 0 1 0 10Zm0-2a3 3 0 1 0 0-6 3 3 0 0 0 0 6Z"/>
    <path fill="#02D8FF" d="M9 23.5a3 3 0 1 0 0-6 3 3 0 0 0 0 6Z"/>
    <path fill="#52244F" fill-rule="nonzero" d="M23.92 22h5.58v-2h-5.58zM34.92 24.39c1.39 2.37.72 5.19-.78 6.4-1.18.95-2.2 1.26-5.8 1.74-1.3.18-2.85.64-4.62 1.35-.87.35-1.79.75-2.75 1.2-1.5.7-4.89 2.44-4.84 2.42-2.1.99-3.64 1.47-5.32 1.47-2.32 0-5.45-2.42-5.64-5.09-.23-3.28.54-5.87 2.74-9.67l-1.73-1c-2.39 4.11-3.26 7.08-3 10.81.27 3.81 4.33 6.95 7.63 6.95 2.05 0 3.82-.56 6.17-1.67 0 0 3.37-1.73 4.84-2.41.92-.44 1.8-.82 2.64-1.15a18.9 18.9 0 0 1 4.15-1.23c3.93-.52 5.24-.93 6.78-2.17 2.24-1.8 3.17-5.69 1.26-8.96l-1.73 1Zm-23.63 4.8c-.96-.98-1.35-2.36-.82-4.37l-1.94-.51c-.7 2.7-.11 4.81 1.33 6.28.6.62 1.22.99 1.68 1.17l.34.14.34-.12c.43-.14 1.14-.45 2.04-.95a19.4 19.4 0 0 0 6.38-5.74l-1.63-1.17a18.07 18.07 0 0 1-5.72 5.17 13.6 13.6 0 0 1-1.33.65 3.8 3.8 0 0 1-.67-.55ZM29.81 17.45l1.78-.9-4.89-9.79-4.89 9.79 1.78.9 3.11-6.21z"/>
  </g>
</svg>
