<svg xmlns="http://www.w3.org/2000/svg" width="47" height="42">
  <g fill="none" fill-rule="evenodd" transform="translate(1)">
    <path fill="#52244F" d="M30.5 35.5c-3.1 1.8-10.3-3.9-15.6-13-5.2-9.1-6.5-18.1-3.4-20 3.1-1.8 10.3 3.9 15.6 13 5.2 9.1 6.5 18.1 3.4 20zm1 1.7c4.5-2.6 3-12.7-2.7-22.7S15-1.8 10.5.8c-4.5 2.6-3 12.7 2.7 22.7S27 39.8 31.5 37.2z"/>
    <path fill="#52244F" d="M0 19c0 5.2 9.4 9 21 9s21-3.8 21-9-9.4-9-21-9-21 3.8-21 9zm2 0c0-3.6 8.5-7 19-7s19 3.4 19 7-8.5 7-19 7-19-3.4-19-7z"/>
    <path fill="#52244F" d="M28.8 23.5c5.8-10 7.2-20 2.7-22.7C27-1.8 19 4.5 13.2 14.5c-5.8 10-7.2 20-2.7 22.7C15 39.8 23 33.5 28.8 23.5zm-13.9-8C20.2 6.4 27.4.7 30.5 2.5c3.1 1.9 1.8 10.9-3.4 20-5.3 9.1-12.5 14.8-15.6 13-3.1-1.9-1.8-10.9 3.4-20z"/>
    <rect width="8" height="8" x="17" y="15" fill="#02D8FF" rx="4"/>
  </g>
</svg>
