<svg width="46" height="42" viewBox="0 0 46 42" xmlns="http://www.w3.org/2000/svg">
  <title>
    redux logo
  </title>
  <g fill="none" fill-rule="evenodd">
    <path d="M31.765 11.64C30.59 4.914 26.005 0 20.553 0c-6.424 0-11.5 6.768-11.5 15 0 5.217 2.05 9.992 5.39 12.72l1.264-1.55c-2.85-2.328-4.654-6.528-4.654-11.17 0-7.232 4.326-13 9.5-13 4.363 0 8.22 4.133 9.24 9.983l1.972-.344z" fill="#52244F"/>
    <path d="M24.763 36.968c6.41 2.344 12.96.83 15.686-3.89 3.21-5.564-.113-13.344-7.242-17.46-4.518-2.608-9.678-3.22-13.71-1.693l.71 1.87c3.442-1.304 7.98-.766 12 1.555 6.263 3.616 9.096 10.247 6.51 14.728-2.183 3.778-7.69 5.05-13.268 3.01l-.687 1.88z" fill="#52244F"/>
    <path d="M5.72 17.312c-5.235 4.38-7.198 10.808-4.473 15.53 3.212 5.562 11.61 6.574 18.74 2.458 4.52-2.61 7.63-6.77 8.322-11.027l-1.975-.32c-.592 3.633-3.327 7.294-7.347 9.615-6.264 3.616-13.422 2.754-16.01-1.727-2.18-3.778-.53-9.184 4.026-12.994L5.72 17.312z" fill="#52244F"/>
    <circle fill="#02D8FF" cx="19.053" cy="15" r="4"/>
    <circle fill="#02D8FF" cx="27.053" cy="24" r="4"/>
    <circle fill="#02D8FF" cx="15.053" cy="27" r="4"/>
  </g>
</svg>