<svg xmlns="http://www.w3.org/2000/svg" width="46" height="42">
  <g fill="none" fill-rule="evenodd">
    <path fill="#52244F" d="M31.77 11.64C30.59 4.91 26 0 20.55 0c-6.42 0-11.5 6.77-11.5 15 0 5.22 2.05 10 5.4 12.72l1.26-1.55c-2.85-2.33-4.66-6.53-4.66-11.17 0-7.23 4.33-13 9.5-13 4.37 0 8.22 4.13 9.24 9.98l1.98-.34z"/>
    <path fill="#52244F" d="M24.76 36.97c6.41 2.34 12.96.83 15.69-3.9 3.2-5.56-.11-13.34-7.24-17.45-4.52-2.61-9.68-3.22-13.71-1.7l.7 1.88c3.45-1.3 7.99-.77 12 1.55 6.27 3.62 9.1 10.25 6.52 14.73-2.19 3.78-7.7 5.05-13.27 3l-.69 1.89z"/>
    <path fill="#52244F" d="M5.72 17.31C.48 21.7-1.48 28.12 1.25 32.84c3.2 5.56 11.6 6.58 18.74 2.46 4.52-2.61 7.63-6.77 8.32-11.03l-1.98-.32c-.59 3.64-3.32 7.3-7.34 9.62-6.27 3.61-13.43 2.75-16.01-1.73-2.18-3.78-.53-9.18 4.02-13l-1.28-1.53z"/>
    <circle cx="19.05" cy="15" r="4" fill="#02D8FF"/>
    <circle cx="27.05" cy="24" r="4" fill="#02D8FF"/>
    <circle cx="15.05" cy="27" r="4" fill="#02D8FF"/>
  </g>
</svg>
