<?xml version="1.0" encoding="UTF-8" standalone="no"?>
<svg width="27px" height="22px" viewBox="0 0 27 22" version="1.1" xmlns="http://www.w3.org/2000/svg" xmlns:xlink="http://www.w3.org/1999/xlink">
    <!-- Generator: sketchtool 41 (35326) - http://www.bohemiancoding.com/sketch -->
    <title>C313526C-E113-4CDD-9159-7AE702AAD7EB</title>
    <desc>Created with sketchtool.</desc>
    <defs></defs>
    <g id="Landing-Page" stroke="none" stroke-width="1" fill="none" fill-rule="evenodd">
        <g id="Landing-Page-Final" transform="translate(-1268.000000, -802.000000)" fill="#52244F">
            <path d="M1295.071,804.604317 C1294.07496,805.046044 1293.00455,805.344589 1291.88108,805.478859 C1293.02782,804.791465 1293.90841,803.70304 1294.3231,802.406179 C1293.25002,803.042578 1292.06139,803.504802 1290.79632,803.753936 C1289.78315,802.674522 1288.33974,802 1286.74235,802 C1283.67502,802 1281.18824,804.486682 1281.18824,807.553817 C1281.18824,807.989108 1281.23745,808.413011 1281.33211,808.819487 C1276.71621,808.58788 1272.62382,806.37677 1269.88454,803.016635 C1269.40648,803.836915 1269.13259,804.790969 1269.13259,805.808793 C1269.13259,807.735617 1270.11318,809.435588 1271.60343,810.431528 C1270.69294,810.402713 1269.83662,810.152886 1269.08773,809.736905 C1269.08734,809.760075 1269.08734,809.783345 1269.08734,809.806714 C1269.08734,812.497673 1271.00178,814.74245 1273.54253,815.252599 C1273.07644,815.379543 1272.5858,815.447371 1272.07922,815.447371 C1271.72136,815.447371 1271.3734,815.412615 1271.03436,815.347757 C1271.74106,817.554312 1273.79216,819.160016 1276.2225,819.204872 C1274.32172,820.694425 1271.92692,821.582335 1269.32488,821.582335 C1268.87662,821.582335 1268.4345,821.556095 1268,821.504802 C1270.45787,823.080602 1273.37727,824 1276.51371,824 C1286.72938,824 1292.31567,815.537083 1292.31567,808.197841 C1292.31567,807.957025 1292.31033,807.717497 1292.29963,807.479354 C1293.38469,806.696307 1294.32637,805.718091 1295.071,804.604317" id="Fill-1"></path>
        </g>
    </g>
</svg>