<svg xmlns="http://www.w3.org/2000/svg" width="27" height="22">
  <path fill="#52244F" fill-rule="evenodd" d="M27.071 2.604c-.996.442-2.066.74-3.19.875A5.57 5.57 0 0 0 26.323.406a11.123 11.123 0 0 1-3.527 1.348 5.554 5.554 0 0 0-9.464 5.066A15.768 15.768 0 0 1 1.885 1.016a5.528 5.528 0 0 0-.752 2.792c0 1.927.98 3.627 2.47 4.623a5.532 5.532 0 0 1-2.515-.695v.07a5.557 5.557 0 0 0 4.455 5.446 5.561 5.561 0 0 1-2.509.095 5.56 5.56 0 0 0 5.189 3.857 11.144 11.144 0 0 1-6.898 2.377c-.448 0-.89-.026-1.325-.077A15.72 15.72 0 0 0 8.514 22c10.215 0 15.802-8.463 15.802-15.802 0-.241-.006-.48-.016-.719a11.288 11.288 0 0 0 2.771-2.875"/>
</svg>
